<svg width="78" height="20" viewBox="0 0 78 20" fill="none" xmlns="http://www.w3.org/2000/svg">
<path d="M24.4877 16V4.0879H32.2271V5.36914H25.9767V9.33407H31.4133V10.6326H25.9767V14.7188H32.2271V16H24.4877ZM32.8251 16L37.2575 10.0266L32.8943 4.0879H34.6604L38.1232 8.76271H38.2617L41.7418 4.0879H43.4386L39.0755 9.97469L43.4906 16H41.7418L38.2098 11.2213H38.0712L34.5219 16H32.8251ZM44.8723 16V4.0879H50.0838C50.8457 4.0879 51.4517 4.18601 51.9018 4.38224C52.3635 4.56692 52.704 4.82664 52.9234 5.16137C53.1542 5.49611 53.31 5.89434 53.3908 6.35605C53.4716 6.80621 53.512 7.30255 53.512 7.84506C53.512 8.36448 53.4716 8.85505 53.3908 9.31676C53.3216 9.76693 53.1715 10.1651 52.9407 10.5114C52.7098 10.8577 52.3635 11.129 51.9018 11.3252C51.4401 11.5214 50.8226 11.6195 50.0492 11.6195H46.3613V16H44.8723ZM46.3613 10.321H49.5644C50.13 10.321 50.5744 10.2748 50.8976 10.1825C51.2323 10.0901 51.4805 9.94584 51.6421 9.74961C51.8037 9.54184 51.9076 9.28213 51.9538 8.97048C51.9999 8.65882 52.023 8.28368 52.023 7.84506C52.023 7.40644 51.9999 7.0313 51.9538 6.71964C51.9191 6.40799 51.821 6.15405 51.6594 5.95782C51.5094 5.7616 51.267 5.61731 50.9322 5.52497C50.609 5.42109 50.1646 5.36914 49.5991 5.36914H46.3613V10.321ZM59.7684 16.1385C58.845 16.1385 58.0774 16.0923 57.4656 16C56.8654 15.8961 56.3864 15.7172 56.0285 15.4633C55.6823 15.2093 55.4283 14.8573 55.2667 14.4071C55.1051 13.9454 55.0012 13.3625 54.9551 12.6584C54.9089 11.9427 54.8858 11.0713 54.8858 10.044C54.8858 9.01665 54.9089 8.15094 54.9551 7.44684C55.0012 6.73119 55.1051 6.14828 55.2667 5.69811C55.4283 5.2364 55.6823 4.87858 56.0285 4.62464C56.3864 4.3707 56.8654 4.19756 57.4656 4.10522C58.0774 4.00133 58.845 3.94939 59.7684 3.94939C60.6918 3.94939 61.4536 4.00133 62.0538 4.10522C62.6656 4.19756 63.1446 4.3707 63.4909 4.62464C63.8487 4.87858 64.1084 5.2364 64.27 5.69811C64.4316 6.14828 64.5355 6.73119 64.5817 7.44684C64.6279 8.15094 64.651 9.01665 64.651 10.044C64.651 11.0713 64.6279 11.9427 64.5817 12.6584C64.5355 13.3625 64.4316 13.9454 64.27 14.4071C64.1084 14.8573 63.8487 15.2093 63.4909 15.4633C63.1446 15.7172 62.6656 15.8961 62.0538 16C61.4536 16.0923 60.6918 16.1385 59.7684 16.1385ZM59.7684 14.8573C60.4032 14.8573 60.9284 14.84 61.344 14.8053C61.7595 14.7592 62.0885 14.661 62.3309 14.511C62.5733 14.3609 62.7579 14.1185 62.8849 13.7838C63.0119 13.4375 63.0869 12.9643 63.11 12.364C63.1446 11.7638 63.1619 10.9905 63.1619 10.044C63.1619 9.09745 63.1446 8.32408 63.11 7.72386C63.0869 7.12364 63.0119 6.65616 62.8849 6.32142C62.7579 5.97514 62.5733 5.72697 62.3309 5.57691C62.0885 5.42686 61.7595 5.33452 61.344 5.29989C60.9284 5.25372 60.4032 5.23063 59.7684 5.23063C59.1335 5.23063 58.6083 5.25372 58.1928 5.29989C57.7888 5.33452 57.4598 5.42686 57.2059 5.57691C56.9635 5.72697 56.7788 5.97514 56.6518 6.32142C56.5364 6.65616 56.4614 7.12364 56.4268 7.72386C56.3921 8.32408 56.3748 9.09745 56.3748 10.044C56.3748 10.9905 56.3921 11.7638 56.4268 12.364C56.4614 12.9643 56.5364 13.4375 56.6518 13.7838C56.7788 14.1185 56.9635 14.3609 57.2059 14.511C57.4598 14.661 57.7888 14.7592 58.1928 14.8053C58.6083 14.84 59.1335 14.8573 59.7684 14.8573ZM66.8463 16V4.0879H72.3176C73.0679 4.0879 73.6623 4.18024 74.1009 4.36493C74.5511 4.53807 74.8801 4.79201 75.0878 5.12675C75.3071 5.44994 75.4514 5.83085 75.5207 6.26948C75.5899 6.7081 75.6246 7.17558 75.6246 7.67192C75.6246 8.099 75.5842 8.5434 75.5034 9.0051C75.4341 9.45527 75.2667 9.86504 75.0013 10.2344C74.7473 10.6038 74.3433 10.875 73.7893 11.0482L75.7977 16H74.2048L72.231 10.9962L72.6465 11.204C72.5657 11.2271 72.4676 11.2444 72.3522 11.2559C72.2368 11.2675 72.081 11.2733 71.8847 11.2733H68.3353V16H66.8463ZM68.3353 9.97469H71.677C72.2541 9.97469 72.7043 9.92852 73.0275 9.83618C73.3622 9.74384 73.6046 9.59956 73.7546 9.40333C73.9162 9.2071 74.0201 8.97048 74.0663 8.69345C74.1125 8.40488 74.1356 8.06437 74.1356 7.67192C74.1356 7.27947 74.1125 6.94473 74.0663 6.6677C74.0317 6.37913 73.9393 6.14251 73.7893 5.95782C73.6508 5.7616 73.4199 5.61731 73.0967 5.52497C72.7851 5.42109 72.3522 5.36914 71.7982 5.36914H68.3353V9.97469Z" fill="#619111"/>
<path d="M16.4805 4.37323C16.967 4.6543 17.2665 5.17361 17.2666 5.73553V13.884C17.2666 14.4459 16.967 14.9652 16.4805 15.2463L14.7656 16.2355L8.63477 12.6965L2.50586 16.2346L0.793945 15.2463C0.307126 14.9652 0.00683784 14.4461 0.00683594 13.884V5.73553C0.00691205 5.17348 0.307186 4.65426 0.793945 4.37323L2.50293 3.38593V3.3869L8.63477 6.92792L14.7666 3.3869V3.38397L16.4805 4.37323Z" fill="#619111"/>
</svg>
