<svg width="80" height="22" viewBox="0 0 80 22" fill="none" xmlns="http://www.w3.org/2000/svg">
<path d="M16.2323 5.41102C19.2204 8.39935 19.2199 13.2441 16.2316 16.2324C13.2434 19.2204 8.39922 19.2204 5.41096 16.2324C2.42271 13.2441 2.42215 8.39935 5.41026 5.41102C8.39858 2.42271 13.244 2.42271 16.2323 5.41102ZM12.0604 5.98443C11.376 5.30011 10.2665 5.30011 9.58221 5.98443L5.98505 9.58158C5.30073 10.2659 5.30073 11.3754 5.98505 12.0597L9.58221 15.6569C10.2665 16.3412 11.376 16.3412 12.0604 15.6569L15.6575 12.0597C16.3419 11.3754 16.3419 10.2659 15.6575 9.58158L12.0604 5.98443Z" fill="#619111"/>
<path d="M23.0719 16.8214V4.87462H24.8899V16.8214H23.0719ZM23.9376 11.8695V10.2074H30.4304V11.8695H23.9376ZM23.9376 6.53678V4.87462H31.123V6.53678H23.9376ZM32.009 16.8214V4.44177H33.7404V16.8214H32.009ZM38.8561 16.9945C38.0366 16.9945 37.3094 16.7983 36.6746 16.4058C36.0513 16.0134 35.5607 15.4593 35.2029 14.7437C34.845 14.028 34.6661 13.1912 34.6661 12.2331C34.6661 11.2635 34.845 10.4267 35.2029 9.72257C35.5607 9.00692 36.0513 8.45287 36.6746 8.06042C37.3094 7.66796 38.0366 7.47174 38.8561 7.47174C39.6872 7.47174 40.4144 7.66796 41.0377 8.06042C41.6726 8.45287 42.1689 9.00692 42.5267 9.72257C42.8846 10.4267 43.0635 11.2635 43.0635 12.2331C43.0635 13.1912 42.8846 14.028 42.5267 14.7437C42.1689 15.4593 41.6726 16.0134 41.0377 16.4058C40.4144 16.7983 39.6872 16.9945 38.8561 16.9945ZM38.8561 15.4362C39.5833 15.4362 40.1662 15.1823 40.6049 14.6744C41.0435 14.155 41.2628 13.3412 41.2628 12.2331C41.2628 11.125 41.0435 10.317 40.6049 9.80914C40.1662 9.28972 39.5833 9.03001 38.8561 9.03001C38.1405 9.03001 37.5634 9.28972 37.1247 9.80914C36.6861 10.317 36.4668 11.125 36.4668 12.2331C36.4668 13.3412 36.6861 14.155 37.1247 14.6744C37.5634 15.1823 38.1405 15.4362 38.8561 15.4362ZM45.2891 16.8214L43.021 7.64488H44.7697L46.9167 16.8214H45.2891ZM46.2587 16.8214L48.423 7.64488H49.8947L47.7477 16.8214H46.2587ZM51.2452 16.8214L49.0982 7.64488H50.6565L52.8727 16.8214H51.2452ZM52.2148 16.8214L54.2925 7.64488H55.9719L53.7038 16.8214H52.2148ZM60.8645 16.9945C59.8949 16.9945 59.1158 16.6482 58.5271 15.9556C57.9384 15.2515 57.6441 14.2646 57.6441 12.9949V11.4713C57.6441 10.2016 57.9384 9.22046 58.5271 8.5279C59.1158 7.82379 59.8949 7.47174 60.8645 7.47174C61.5802 7.47174 62.2093 7.66219 62.7518 8.0431C63.3058 8.42401 63.7387 8.97229 64.0503 9.68794C64.362 10.392 64.5178 11.2404 64.5178 12.2331C64.5178 13.2258 64.362 14.08 64.0503 14.7956C63.7387 15.4997 63.3058 16.0422 62.7518 16.4231C62.2093 16.804 61.5802 16.9945 60.8645 16.9945ZM56.3975 16.8214V4.44177H58.1289V9.7572L57.8692 12.2331L58.1289 14.6917V16.8214H56.3975ZM60.3797 15.4709C61.0723 15.4709 61.6321 15.2169 62.0592 14.709C62.4978 14.1896 62.7171 13.3643 62.7171 12.2331C62.7171 11.1019 62.4978 10.2824 62.0592 9.77451C61.6321 9.25509 61.0723 8.99538 60.3797 8.99538C59.6872 8.99538 59.1216 9.25509 58.6829 9.77451C58.2559 10.2824 58.0423 11.1019 58.0423 12.2331C58.0423 13.3643 58.2559 14.1896 58.6829 14.709C59.1216 15.2169 59.6872 15.4709 60.3797 15.4709ZM69.1626 16.9945C68.343 16.9945 67.6158 16.7983 66.981 16.4058C66.3577 16.0134 65.8671 15.4593 65.5093 14.7437C65.1515 14.028 64.9726 13.1912 64.9726 12.2331C64.9726 11.2635 65.1515 10.4267 65.5093 9.72257C65.8671 9.00692 66.3577 8.45287 66.981 8.06042C67.6158 7.66796 68.343 7.47174 69.1626 7.47174C69.9937 7.47174 70.7208 7.66796 71.3442 8.06042C71.979 8.45287 72.4753 9.00692 72.8332 9.72257C73.191 10.4267 73.3699 11.2635 73.3699 12.2331C73.3699 13.1912 73.191 14.028 72.8332 14.7437C72.4753 15.4593 71.979 16.0134 71.3442 16.4058C70.7208 16.7983 69.9937 16.9945 69.1626 16.9945ZM69.1626 15.4362C69.8898 15.4362 70.4727 15.1823 70.9113 14.6744C71.3499 14.155 71.5692 13.3412 71.5692 12.2331C71.5692 11.125 71.3499 10.317 70.9113 9.80914C70.4727 9.28972 69.8898 9.03001 69.1626 9.03001C68.4469 9.03001 67.8698 9.28972 67.4312 9.80914C66.9925 10.317 66.7732 11.125 66.7732 12.2331C66.7732 13.3412 66.9925 14.155 67.4312 14.6744C67.8698 15.1823 68.4469 15.4362 69.1626 15.4362ZM77.4828 16.9945C76.5825 16.9945 75.8784 16.7579 75.3705 16.2846C74.8741 15.7998 74.626 15.0842 74.626 14.1377V5.74033L76.3574 5.39405V13.826C76.3574 14.357 76.4844 14.7494 76.7383 15.0034C76.9922 15.2458 77.3616 15.367 77.8464 15.367C78.0773 15.367 78.2908 15.3497 78.487 15.315C78.6948 15.2804 78.8968 15.24 79.093 15.1938V16.8214C78.8506 16.8791 78.6025 16.9195 78.3485 16.9425C78.1061 16.9772 77.8175 16.9945 77.4828 16.9945ZM73.3274 9.15121V7.64488H79.0064V9.15121H73.3274Z" fill="#619111"/>
</svg>
