<svg width="31" height="31" viewBox="0 0 31 31" fill="none" xmlns="http://www.w3.org/2000/svg">
<g clip-path="url(#clip0_2015_739)">
<path fill-rule="evenodd" clip-rule="evenodd" d="M15 0C6.71 0 0 6.72 0 15C0 18.44 1.16 21.61 3.11 24.14C3.29 24.38 3.48 24.61 3.68 24.84C3.82 24.59 4.03 24.37 4.29 24.23C4.09 24.01 3.91 23.79 3.74 23.56C2.5 21.94 1.61 20.05 1.17 17.99C0.99 17.16 0.88 16.3 0.86 15.43C0.85 15.29 0.85 15.14 0.85 15C0.85 14.93 0.85 14.86 0.86 14.79C0.85 14.72 0.85 14.64 0.86 14.57C0.88 13.7 0.99 12.84 1.17 12.01C2.33 6.6 6.59 2.35 12 1.18C12.83 1 13.69 0.89 14.57 0.87C14.64 0.86 14.72 0.86 14.79 0.87C14.86 0.86 14.93 0.86 15 0.86C15.07 0.86 15.14 0.86 15.21 0.87C15.28 0.86 15.36 0.86 15.43 0.87C16.31 0.89 17.17 1 18 1.18C23.4 2.35 27.65 6.6 28.82 12C29 12.83 29.11 13.69 29.13 14.57C29.14 14.64 29.14 14.72 29.13 14.79C29.14 14.86 29.14 14.93 29.14 15C29.14 15.14 29.14 15.29 29.13 15.43C29.11 16.31 29 17.17 28.82 18C27.65 23.4 23.4 27.65 18 28.82C17.17 29 16.31 29.11 15.43 29.13C15.29 29.14 15.14 29.14 15 29.14C14.86 29.14 14.71 29.14 14.57 29.13C13.69 29.11 12.83 29 12 28.82C10.34 28.46 8.78 27.81 7.4 26.93C7.16 26.77 6.92 26.61 6.69 26.44C6.56 26.71 6.38 26.94 6.14 27.11C6.38 27.28 6.63 27.45 6.88 27.61C9.22 29.12 12 30 15 30C23.28 30 30 23.28 30 15C30 6.72 23.28 0 15 0Z" fill="black"/>
<path fill-rule="evenodd" clip-rule="evenodd" d="M21.1701 6.01C20.3601 3.9 19.2701 2.22 18.0001 1.18C17.0801 0.42 16.0701 0 15.0001 0C13.9301 0 12.9201 0.42 12.0001 1.18C10.3301 2.55 8.96008 5.03 8.13008 8.14C8.05008 8.45 7.98008 8.77 7.91008 9.09C7.67008 10.15 7.50008 11.28 7.40008 12.45C7.37008 12.74 7.34008 13.03 7.33008 13.33C7.45008 13.31 7.58008 13.29 7.71008 13.29C7.88008 13.29 8.04008 13.31 8.19008 13.36C8.20008 13.06 8.23008 12.78 8.26008 12.49C8.37008 11.21 8.57008 9.98 8.85008 8.85C8.92008 8.53 9.00008 8.22 9.09008 7.92C9.42008 6.76 9.84008 5.71 10.3101 4.79C11.5301 2.4 13.0601 1.1 14.5701 0.9C14.6401 0.88 14.7101 0.88 14.7901 0.87C14.8601 0.86 14.9301 0.86 15.0001 0.86C15.0701 0.86 15.1401 0.86 15.2101 0.87C15.2801 0.88 15.3501 0.88 15.4301 0.9C16.9301 1.1 18.4701 2.4 19.6901 4.79C19.9201 5.24 20.1401 5.73 20.3401 6.24C20.4401 6.51 20.5401 6.78 20.6401 7.06C20.8701 6.93 21.1401 6.86 21.4301 6.86H21.4701C21.3801 6.57 21.2801 6.29 21.1701 6.01ZM22.7001 14.57C22.6901 13.31 22.5901 12.1 22.4201 10.94C22.3801 10.64 22.3301 10.34 22.2801 10.05C22.0301 10.2 21.7501 10.29 21.4501 10.29C21.5001 10.57 21.5401 10.85 21.5801 11.13C21.7401 12.23 21.8301 13.38 21.8401 14.57C21.8401 14.71 21.8401 14.86 21.8401 15C21.8401 15.14 21.8401 15.29 21.8401 15.43C21.8201 17.48 21.5701 19.42 21.1501 21.15C21.0801 21.47 20.9901 21.78 20.9101 22.08C20.5701 23.24 20.1601 24.29 19.6901 25.21C18.4701 27.6 16.9301 28.9 15.4301 29.1C15.2801 29.13 15.1401 29.14 15.0001 29.14C14.8601 29.14 14.7101 29.13 14.5701 29.1C13.0601 28.9 11.5301 27.6 10.3101 25.21C9.84008 24.29 9.42008 23.24 9.09008 22.08C9.00008 21.78 8.92008 21.47 8.85008 21.15C8.57008 20.02 8.37008 18.79 8.26008 17.51C8.23008 17.22 8.20008 16.94 8.19008 16.64C8.04008 16.69 7.88008 16.71 7.71008 16.71C7.58008 16.71 7.45008 16.69 7.33008 16.67C7.34008 16.97 7.37008 17.26 7.40008 17.55C7.50008 18.72 7.67008 19.85 7.91008 20.91C7.98008 21.23 8.05008 21.55 8.13008 21.86C8.96008 24.97 10.3301 27.45 12.0001 28.82C12.9201 29.58 13.9301 30 15.0001 30C16.0701 30 17.0801 29.58 18.0001 28.82C19.6701 27.45 21.0301 24.97 21.8601 21.86C21.9401 21.55 22.0201 21.23 22.0901 20.91C22.4601 19.22 22.6801 17.37 22.7001 15.43C22.7101 15.29 22.7101 15.14 22.7101 15C22.7101 14.86 22.7101 14.71 22.7001 14.57Z" fill="black"/>
<path fill-rule="evenodd" clip-rule="evenodd" d="M28.82 12C27.78 10.73 26.1 9.64001 23.99 8.83001C23.71 8.72001 23.43 8.62001 23.14 8.53001V8.57001C23.14 8.86001 23.07 9.13001 22.94 9.37001C23.22 9.46001 23.5 9.56001 23.76 9.66001C24.28 9.86001 24.76 10.08 25.21 10.31C27.6 11.53 28.9 13.07 29.1 14.57C29.11 14.64 29.13 14.72 29.13 14.79C29.14 14.86 29.14 14.93 29.14 15C29.14 15.14 29.13 15.28 29.1 15.43C28.9 16.93 27.6 18.47 25.21 19.69C24.3 20.16 23.25 20.57 22.09 20.91C21.79 20.99 21.47 21.08 21.15 21.15C19.42 21.57 17.48 21.83 15.43 21.85C15.29 21.86 15.15 21.86 15 21.86C14.86 21.86 14.71 21.86 14.57 21.85C12.52 21.83 10.58 21.58 8.85 21.15C8.53 21.08 8.21 21 7.91 20.91C6.75 20.57 5.7 20.16 4.78 19.69C2.4 18.47 1.09 16.93 0.89 15.43C0.86 15.28 0.85 15.14 0.85 15C0.85 14.93 0.85 14.86 0.86 14.79C0.87 14.72 0.87 14.64 0.89 14.57C1.09 13.07 2.4 11.53 4.78 10.31C5.7 9.84001 6.75 9.43001 7.91 9.09001C8.21 9.00001 8.53 8.92001 8.85 8.85001C10.58 8.42001 12.52 8.17001 14.57 8.15001C14.71 8.14001 14.86 8.14001 15 8.14001C15.15 8.14001 15.29 8.14001 15.43 8.15001C16.62 8.15001 17.77 8.25001 18.86 8.42001C19.15 8.45001 19.43 8.49001 19.71 8.55001C19.71 8.25001 19.8 7.96001 19.94 7.72001C19.65 7.66001 19.35 7.62001 19.05 7.58001C17.89 7.41001 16.68 7.31001 15.43 7.30001C15.29 7.29001 15.14 7.29001 15 7.29001C14.86 7.29001 14.71 7.29001 14.57 7.30001C12.62 7.32001 10.78 7.54001 9.09 7.92001C8.76 7.98001 8.44 8.06001 8.13 8.14001C5.01 8.97001 2.54 10.34 1.17 12.01C0.42 12.93 0 13.94 0 15C0 16.06 0.42 17.07 1.17 17.99C2.54 19.66 5.01 21.03 8.13 21.86C8.44 21.94 8.76 22.02 9.09 22.08C10.78 22.46 12.62 22.68 14.57 22.7C14.71 22.71 14.86 22.71 15 22.71C15.14 22.71 15.29 22.71 15.43 22.7C17.37 22.68 19.22 22.46 20.91 22.08C21.23 22.02 21.55 21.94 21.86 21.86C24.97 21.03 27.45 19.67 28.82 18C29.58 17.08 30 16.06 30 15C30 13.94 29.58 12.92 28.82 12Z" fill="black"/>
<path fill-rule="evenodd" clip-rule="evenodd" d="M21.4301 6C21.3401 6 21.2501 6 21.1701 6.01C20.8701 6.04 20.5901 6.12 20.3401 6.24C19.7601 6.51 19.3001 6.99 19.0501 7.58C18.9401 7.84 18.8701 8.12 18.8601 8.42C18.8501 8.47 18.8501 8.52 18.8501 8.57C18.8501 9.99 20.0101 11.14 21.4301 11.14C21.4801 11.14 21.5301 11.14 21.5801 11.13C21.8801 11.12 22.1601 11.05 22.4201 10.94C23.0101 10.7 23.4901 10.24 23.7601 9.66C23.8801 9.41 23.9601 9.13 23.9901 8.83C24.0001 8.74 24.0001 8.66 24.0001 8.57C24.0001 7.15 22.8501 6 21.4301 6ZM23.1401 8.57C23.1401 8.86 23.0701 9.13 22.9401 9.37C22.7901 9.66 22.5601 9.9 22.2801 10.05C22.0301 10.2 21.7501 10.29 21.4501 10.29H21.4301C20.4801 10.29 19.7101 9.52 19.7101 8.57V8.55C19.7101 8.25 19.8001 7.96 19.9401 7.72C20.1001 7.43 20.3401 7.2 20.6401 7.06C20.8701 6.93 21.1401 6.86 21.4301 6.86H21.4701C22.3801 6.88 23.1201 7.61 23.1401 8.53V8.57Z" fill="black"/>
<path fill-rule="evenodd" clip-rule="evenodd" d="M5.13982 23.14C4.61982 23.14 4.13982 23.29 3.73982 23.56C3.49982 23.71 3.27982 23.91 3.10982 24.14C2.76982 24.58 2.56982 25.12 2.56982 25.71C2.56982 27.13 3.71982 28.29 5.13982 28.29C5.80982 28.29 6.41982 28.03 6.87982 27.61C7.08982 27.42 7.25982 27.19 7.39982 26.93C7.59982 26.56 7.70982 26.15 7.70982 25.71C7.70982 24.29 6.55982 23.14 5.13982 23.14ZM6.13982 27.11C5.85982 27.31 5.51982 27.43 5.13982 27.43C4.18982 27.43 3.42982 26.66 3.42982 25.71C3.42982 25.39 3.51982 25.1 3.67982 24.84C3.81982 24.59 4.02982 24.37 4.28982 24.23C4.53982 24.08 4.82982 24 5.13982 24C6.08982 24 6.84982 24.77 6.84982 25.71C6.84982 25.97 6.78982 26.22 6.68982 26.44C6.55982 26.71 6.37982 26.94 6.13982 27.11Z" fill="black"/>
<path fill-rule="evenodd" clip-rule="evenodd" d="M6.05982 14.57C6.01982 14.71 5.99982 14.85 5.99982 15C5.99982 15.15 6.01982 15.29 6.05982 15.43H0.569824V14.57H6.05982Z" fill="black"/>
<path fill-rule="evenodd" clip-rule="evenodd" d="M29.7101 14.57V15.43H9.37012C9.41012 15.29 9.43012 15.15 9.43012 15C9.43012 14.85 9.41012 14.71 9.37012 14.57H29.7101Z" fill="black"/>
<path fill-rule="evenodd" clip-rule="evenodd" d="M14.5703 29.57V0.429993H15.4303V29.57H14.5703Z" fill="black"/>
<path fill-rule="evenodd" clip-rule="evenodd" d="M10.2401 14.57C10.0701 13.53 9.28014 12.71 8.26014 12.49C8.08014 12.45 7.90014 12.43 7.71014 12.43C7.60014 12.43 7.50014 12.44 7.40014 12.45C6.27014 12.59 5.36014 13.46 5.18014 14.57C5.15014 14.71 5.14014 14.85 5.14014 15C5.14014 15.15 5.15014 15.29 5.18014 15.43C5.36014 16.54 6.27014 17.41 7.40014 17.55C7.50014 17.56 7.60014 17.57 7.71014 17.57C7.90014 17.57 8.08014 17.55 8.26014 17.51C9.28014 17.29 10.0701 16.47 10.2401 15.43C10.2701 15.29 10.2801 15.15 10.2801 15C10.2801 14.85 10.2701 14.71 10.2401 14.57ZM8.19014 16.64C8.04014 16.69 7.88014 16.71 7.71014 16.71C7.58014 16.71 7.45014 16.69 7.33014 16.67C6.71014 16.52 6.21014 16.05 6.06014 15.43C6.02014 15.29 6.00014 15.15 6.00014 15C6.00014 14.85 6.02014 14.71 6.06014 14.57C6.21014 13.95 6.71014 13.48 7.33014 13.33C7.45014 13.31 7.58014 13.29 7.71014 13.29C7.88014 13.29 8.04014 13.31 8.19014 13.36C8.77014 13.52 9.22014 13.99 9.37014 14.57C9.41014 14.71 9.43014 14.85 9.43014 15C9.43014 15.15 9.41014 15.29 9.37014 15.43C9.22014 16.01 8.77014 16.48 8.19014 16.64Z" fill="black"/>
</g>
<defs>
<clipPath id="clip0_2015_739">
<rect width="30" height="30" fill="white"/>
</clipPath>
</defs>
</svg>
