<svg width="64" height="15" viewBox="0 0 64 15" fill="none" xmlns="http://www.w3.org/2000/svg">
<path d="M58.0542 14.7348C57.0473 14.7348 56.1439 14.5141 55.3439 14.0727C54.5439 13.6314 53.9095 13.0107 53.4405 12.2107C52.9854 11.397 52.7578 10.4453 52.7578 9.35566C52.7578 8.23846 52.9992 7.27988 53.4819 6.47991C53.9647 5.67994 54.6129 5.06617 55.4267 4.63861C56.2404 4.19724 57.1438 3.97656 58.1369 3.97656C59.1438 3.97656 60.0472 4.19724 60.8472 4.63861C61.6609 5.06617 62.3023 5.67994 62.7712 6.47991C63.254 7.27988 63.4953 8.23846 63.4953 9.35566C63.4953 10.3901 63.2608 11.3142 62.7919 12.128C62.3367 12.9417 61.6954 13.5831 60.8678 14.052C60.0541 14.5072 59.1162 14.7348 58.0542 14.7348ZM58.0748 12.7073C58.6679 12.7073 59.1851 12.5624 59.6265 12.2728C60.0817 11.9694 60.4403 11.5625 60.7023 11.0521C60.9644 10.5418 61.0954 9.96254 61.0954 9.31428C61.0954 8.63845 60.9644 8.05226 60.7023 7.55573C60.4403 7.0592 60.0817 6.6799 59.6265 6.41785C59.1851 6.14199 58.6748 6.00407 58.0955 6.00407C57.4887 6.00407 56.9576 6.14889 56.5025 6.43853C56.0611 6.72818 55.7232 7.12816 55.4887 7.63849C55.2543 8.13502 55.137 8.70741 55.137 9.35566C55.137 10.0591 55.2681 10.666 55.5301 11.1763C55.806 11.6728 56.1646 12.0521 56.6059 12.3142C57.0611 12.5762 57.5507 12.7073 58.0748 12.7073Z" fill="#619111"/>
<path d="M45.4763 14.7383C44.4557 14.7383 43.5798 14.4969 42.8488 14.0142C42.1316 13.5176 41.573 12.8625 41.173 12.0487C40.7868 11.235 40.5938 10.3246 40.5938 9.31779C40.5938 8.32473 40.7868 7.42821 41.173 6.62824C41.573 5.81448 42.1385 5.17313 42.8695 4.70418C43.6005 4.22144 44.4695 3.98007 45.4763 3.98007C46.1935 3.98007 46.8625 4.13179 47.4831 4.43522C48.1038 4.72487 48.6072 5.15244 48.9934 5.71793V0.0078125H51.3519V14.49H49.0555L48.9934 12.9383C48.6624 13.49 48.1866 13.9314 47.5659 14.2624C46.9452 14.5797 46.2487 14.7383 45.4763 14.7383ZM45.9935 12.6901C46.6142 12.6901 47.1452 12.5453 47.5866 12.2556C48.0279 11.966 48.3728 11.5729 48.621 11.0763C48.8693 10.566 48.9934 9.99363 48.9934 9.35917C48.9934 8.62816 48.8486 8.01439 48.559 7.51786C48.2831 7.02133 47.9107 6.64893 47.4418 6.40067C46.9866 6.1524 46.497 6.02827 45.9729 6.02827C45.3936 6.02827 44.8763 6.17309 44.4212 6.46273C43.9798 6.73858 43.6281 7.12477 43.3661 7.62131C43.1178 8.10405 42.9937 8.67644 42.9937 9.33848C42.9937 9.98673 43.1247 10.566 43.3867 11.0763C43.6488 11.5729 44.0005 11.966 44.4419 12.2556C44.897 12.5453 45.4143 12.6901 45.9935 12.6901Z" fill="#619111"/>
<path d="M34.6331 14.7348C33.5987 14.7348 32.6953 14.5072 31.9229 14.052C31.1505 13.5831 30.5437 12.9486 30.1023 12.1487C29.6747 11.3349 29.4609 10.4039 29.4609 9.35566C29.4609 8.26605 29.6747 7.32126 30.1023 6.52129C30.5437 5.72132 31.1505 5.10066 31.9229 4.65929C32.7091 4.20414 33.6194 3.97656 34.6538 3.97656C35.6607 3.97656 36.5365 4.19724 37.2813 4.63861C38.0261 5.06617 38.6123 5.65926 39.0399 6.41785C39.4674 7.17644 39.6812 8.03847 39.6812 9.00395C39.6812 9.19705 39.6743 9.36946 39.6605 9.52117C39.6605 9.67289 39.6467 9.8384 39.6192 10.0177H31.8195C31.8608 10.5556 31.9988 11.0384 32.2332 11.4659C32.4677 11.8797 32.7849 12.2038 33.1849 12.4383C33.5987 12.6728 34.0677 12.79 34.5918 12.79C35.1573 12.79 35.6331 12.6659 36.0193 12.4176C36.4193 12.1693 36.7296 11.8107 36.9503 11.3418H39.4123C39.2192 11.9625 38.9088 12.528 38.4813 13.0383C38.0675 13.5486 37.5365 13.9624 36.8882 14.2796C36.2538 14.583 35.5021 14.7348 34.6331 14.7348ZM31.8402 8.38329H37.2813C37.2675 7.6247 36.9986 7.02472 36.4745 6.58336C35.9503 6.14199 35.3228 5.92131 34.5918 5.92131C33.9297 5.92131 33.3298 6.12131 32.7918 6.52129C32.2677 6.92127 31.9505 7.54194 31.8402 8.38329Z" fill="#619111"/>
<path d="M18.9219 14.49V0.0078125H23.701C24.7216 0.0078125 25.5975 0.166427 26.3285 0.483656C27.0595 0.800885 27.625 1.26294 28.025 1.86981C28.4249 2.47668 28.6249 3.23527 28.6249 4.14558C28.6249 5.20761 28.3422 6.04206 27.7767 6.64893C27.225 7.25581 26.4595 7.66958 25.4802 7.89026L29.5559 14.49H26.7629L23.1424 8.28335H21.2804V14.49H18.9219ZM21.2804 6.29722H23.6596C24.3217 6.29722 24.8389 6.20757 25.2113 6.02827C25.5975 5.84896 25.8664 5.6007 26.0181 5.28347C26.1699 4.95245 26.2457 4.57315 26.2457 4.14558C26.2457 3.70422 26.1699 3.32492 26.0181 3.0077C25.8664 2.67667 25.5975 2.42841 25.2113 2.2629C24.8389 2.08359 24.3217 1.99394 23.6596 1.99394H21.2804V6.29722Z" fill="#619111"/>
<path fill-rule="evenodd" clip-rule="evenodd" d="M5.24038 6.29446C3.60911 6.29446 2.28671 7.61686 2.28671 9.24813C2.28671 10.8794 3.60911 12.2018 5.24038 12.2018H15.5306V14.4885H5.24038C2.3462 14.4885 0 12.1423 0 9.24813C0 6.35395 2.3462 4.00775 5.24038 4.00775H12.958V6.29446H5.24038Z" fill="#619111"/>
<path fill-rule="evenodd" clip-rule="evenodd" d="M12.4869 5.15074L9.00781 1.67164L10.6248 0.0546875L15.7208 5.15074L10.6248 10.2468L9.00781 8.62985L12.4869 5.15074Z" fill="#619111"/>
</svg>
