<svg width="86" height="21" viewBox="0 0 86 21" fill="none" xmlns="http://www.w3.org/2000/svg">
<path d="M35.2092 7.67573C35.2092 7.90823 35.1563 8.1513 35.0507 8.40494C34.7759 9.08131 34.2369 9.56217 33.4337 9.84751C33.8564 9.92149 34.2369 10.0483 34.5751 10.228C35.41 10.6718 35.8274 11.3482 35.8274 12.2571C35.8274 12.7961 35.6636 13.2928 35.336 13.7472C34.7019 14.6032 33.6979 15.0312 32.324 15.0312H27.6317V14.6191H28.8999V5.93196H27.6317V5.5198H32.2289C32.9159 5.5198 33.5077 5.63605 34.0044 5.86855C34.8076 6.24901 35.2092 6.8514 35.2092 7.67573ZM31.7375 5.93196H30.4217V9.65728H31.7375C32.1285 9.65728 32.472 9.56745 32.7679 9.38779C33.328 9.06017 33.6081 8.53176 33.6081 7.80255C33.6081 7.67573 33.5975 7.54891 33.5764 7.42209C33.4496 6.42867 32.8366 5.93196 31.7375 5.93196ZM32.0704 10.0853H30.4217V14.6191H32.0863C32.5513 14.6191 32.9529 14.487 33.291 14.2228C33.8512 13.7789 34.1312 13.1237 34.1312 12.2571C34.1312 11.9189 34.0731 11.6018 33.9568 11.3059C33.6398 10.4922 33.011 10.0853 32.0704 10.0853ZM39.3714 14.6349C39.4242 14.6349 39.4771 14.6402 39.5299 14.6508C39.6779 14.6719 39.7518 14.7987 39.7518 15.0312H35.9631V14.6349C36.3119 14.6349 36.5708 14.6085 36.7399 14.5557C37.0252 14.4606 37.1679 14.1752 37.1679 13.6996V5.12349H35.9631V4.72718H38.5154V14.6349H39.3714ZM41.2984 11.6388C41.309 13.7208 41.9748 14.7723 43.2958 14.7935C44.5746 14.7829 45.2192 13.7102 45.2298 11.5754C45.2192 9.54631 44.564 8.52119 43.2641 8.50005C41.9642 8.51062 41.309 9.55688 41.2984 11.6388ZM43.3117 8.10374C44.062 8.10374 44.7331 8.30454 45.3249 8.70614C46.2761 9.36137 46.7516 10.3337 46.7516 11.623C46.7516 12.5953 46.4452 13.4143 45.8322 14.0801C45.1558 14.8199 44.2945 15.1898 43.2483 15.1898C42.4873 15.1898 41.8004 14.9678 41.1874 14.524C40.2574 13.8476 39.7924 12.8648 39.7924 11.5754C39.7924 10.6348 40.0883 9.84223 40.6802 9.19756C41.3671 8.46835 42.2443 8.10374 43.3117 8.10374ZM48.4884 11.6388C48.499 13.7208 49.1648 14.7723 50.4858 14.7935C51.7646 14.7829 52.4093 13.7102 52.4198 11.5754C52.4093 9.54631 51.754 8.52119 50.4541 8.50005C49.1542 8.51062 48.499 9.55688 48.4884 11.6388ZM50.5017 8.10374C51.252 8.10374 51.9231 8.30454 52.5149 8.70614C53.4661 9.36137 53.9417 10.3337 53.9417 11.623C53.9417 12.5953 53.6352 13.4143 53.0222 14.0801C52.3459 14.8199 51.4845 15.1898 50.4383 15.1898C49.6774 15.1898 48.9904 14.9678 48.3775 14.524C47.4475 13.8476 46.9825 12.8648 46.9825 11.5754C46.9825 10.6348 47.2784 9.84223 47.8702 9.19756C48.5571 8.46835 49.4343 8.10374 50.5017 8.10374ZM57.1369 14.6349C57.1897 14.6349 57.2426 14.6402 57.2954 14.6508C57.4434 14.6719 57.5173 14.7987 57.5173 15.0312H54.0139V14.6349C54.3204 14.6349 54.5529 14.6138 54.7115 14.5715C55.0074 14.4764 55.1553 14.1858 55.1553 13.6996V8.67443H54.0139V8.27812H56.4235L56.4869 9.75239C56.582 9.54103 56.693 9.34023 56.8198 9.15C57.3271 8.4525 57.9823 8.10374 58.7855 8.10374C58.9863 8.10374 59.1818 8.14073 59.3721 8.21471C60.0062 8.45778 60.4236 8.97563 60.6244 9.76825C60.6772 9.64143 60.7354 9.51989 60.7988 9.40364C61.2955 8.53704 61.9877 8.10374 62.8755 8.10374C63.2453 8.10374 63.5888 8.19886 63.9059 8.38909C64.6139 8.83295 64.968 9.58859 64.968 10.656V14.6349H65.713C65.7764 14.6349 65.8293 14.6402 65.8716 14.6508C66.0301 14.6719 66.1093 14.7987 66.1093 15.0312H62.5901V14.6349C62.9072 14.6349 63.1397 14.6085 63.2876 14.5557C63.5095 14.4606 63.6205 14.1752 63.6205 13.6996V10.4975C63.6205 10.1698 63.573 9.87921 63.4778 9.62558C63.2665 9.06546 62.8966 8.7854 62.3682 8.7854C62.1885 8.7854 62.0036 8.83295 61.8133 8.92807C61.2638 9.20284 60.9045 9.72597 60.7354 10.4975V10.6718V14.6349H61.3536C61.417 14.6349 61.4699 14.6402 61.5121 14.6508C61.6707 14.6719 61.7499 14.7987 61.7499 15.0312H58.3575V14.6349C58.6746 14.6349 58.9071 14.6085 59.055 14.5557C59.2664 14.4606 59.3721 14.1752 59.3721 13.6996V10.4975C59.3721 10.2015 59.3351 9.93206 59.2611 9.68899C59.0709 9.10773 58.7221 8.8171 58.2148 8.8171C57.9401 8.8171 57.6706 8.9175 57.4064 9.1183C56.8251 9.5516 56.5239 10.228 56.5028 11.1474V14.6349H57.1369ZM69.257 14.6349C69.3204 14.6349 69.3733 14.6402 69.4155 14.6508C69.574 14.6719 69.6533 14.7987 69.6533 15.0312H65.9597V14.6349C66.2767 14.6349 66.5145 14.6138 66.6731 14.5715C67.0007 14.4764 67.1645 14.1858 67.1645 13.6996V8.67443H65.9597V8.27812H68.5119V14.6349H69.257ZM68.6863 6.01122C68.6863 6.14861 68.6546 6.286 68.5912 6.42339C68.4221 6.77214 68.1473 6.94652 67.7669 6.94652C67.6295 6.94652 67.4974 6.9201 67.3706 6.86725C67.0112 6.69816 66.8316 6.41282 66.8316 6.01122C66.8316 5.87384 66.8633 5.73645 66.9267 5.59906C67.0958 5.25031 67.3758 5.07593 67.7669 5.07593C67.9043 5.07593 68.0416 5.10764 68.179 5.17105C68.5172 5.35071 68.6863 5.63077 68.6863 6.01122ZM72.7059 14.6349C72.7693 14.6349 72.8221 14.6402 72.8644 14.6508C73.0229 14.6719 73.1022 14.7987 73.1022 15.0312H69.5671V14.6349C69.8736 14.6349 70.1061 14.6138 70.2646 14.5715C70.5605 14.4764 70.7084 14.1858 70.7084 13.6996V8.67443H69.5671V8.27812H71.9766L72.0401 9.76825C72.1457 9.50404 72.2884 9.26625 72.4681 9.05489C72.9859 8.42079 73.6359 8.10374 74.4179 8.10374C74.7878 8.10374 75.1366 8.19357 75.4642 8.37323C76.2251 8.79597 76.6055 9.56217 76.6055 10.6718V14.6349H77.3506C77.414 14.6349 77.4669 14.6402 77.5091 14.6508C77.6677 14.6719 77.7469 14.7987 77.7469 15.0312H74.1643V14.6349C74.4708 14.6349 74.698 14.6085 74.8459 14.5557C75.1207 14.4606 75.2581 14.1752 75.2581 13.6996V10.4975C75.2581 10.2227 75.2211 9.96904 75.1471 9.73654C74.9358 9.12358 74.5077 8.8171 73.8631 8.8171C73.5883 8.8171 73.3135 8.90165 73.0388 9.07074C72.4047 9.49347 72.077 10.1857 72.0559 11.1474V14.6349H72.7059ZM79.3252 10.6401C79.3252 10.7352 79.3252 10.8304 79.3252 10.9255C79.3886 12.1937 79.8853 12.8278 80.8153 12.8278C81.7031 12.7644 82.1945 12.0351 82.2896 10.6401C82.2896 10.4499 82.2843 10.2755 82.2737 10.117C82.1681 9.03904 81.6819 8.50005 80.8153 8.50005C80.7413 8.50005 80.6674 8.50534 80.5934 8.51591C79.7479 8.61102 79.3252 9.3191 79.3252 10.6401ZM80.8312 8.10374C81.423 8.10374 81.962 8.23585 82.4481 8.50005C82.501 8.30982 82.5855 8.13016 82.7018 7.96107C83.0082 7.4855 83.4098 7.24771 83.9065 7.24771C84.0334 7.24771 84.1549 7.26885 84.2711 7.31112C84.6093 7.43794 84.7784 7.67573 84.7784 8.02448C84.7784 8.05619 84.7731 8.09846 84.7626 8.1513C84.7097 8.41551 84.5512 8.54761 84.287 8.54761C84.1813 8.54761 84.0703 8.49477 83.9541 8.38909C83.7744 8.21999 83.6106 8.13545 83.4627 8.13545C83.1773 8.16715 82.9554 8.36795 82.7969 8.73784C83.3887 9.20284 83.6899 9.83166 83.7005 10.6243C83.7005 11.2372 83.5049 11.7762 83.1139 12.2412C82.5432 12.8965 81.7717 13.2241 80.7995 13.2241H80.7519L79.341 13.2082C79.2565 13.2082 79.1772 13.2188 79.1033 13.2399C78.7862 13.3033 78.6277 13.4671 78.6277 13.7314C78.6382 14.1012 78.8708 14.302 79.3252 14.3337L82.2896 14.3972C82.4375 14.3972 82.5802 14.4077 82.7176 14.4289C83.785 14.5662 84.3187 15.1052 84.3187 16.0458C84.3187 16.3417 84.2342 16.6218 84.0651 16.886C83.5472 17.668 82.4745 18.0591 80.847 18.0591C80.2024 18.0591 79.6528 17.9639 79.1984 17.7737C78.5009 17.4884 78.1521 17.0551 78.1521 16.4738C78.1521 16.1145 78.3212 15.7499 78.6594 15.38C78.2261 15.1052 78.0042 14.6878 77.9936 14.1277C77.9936 13.9691 78.0147 13.8159 78.057 13.6679C78.2472 13.0973 78.67 12.8119 79.3252 12.8119C79.2406 12.7591 79.1508 12.7009 79.0557 12.6375C78.2948 12.0986 77.9143 11.4328 77.9143 10.6401C77.9143 10.0483 78.0993 9.53046 78.4692 9.08659C79.0293 8.43136 79.8166 8.10374 80.8312 8.10374ZM80.847 17.6469C81.3543 17.6469 81.8193 17.5993 82.242 17.5042C83.1192 17.2929 83.5578 16.9494 83.5578 16.4738C83.5578 16.3576 83.5366 16.2466 83.4944 16.1409C83.3676 15.845 82.9343 15.6918 82.1945 15.6812L79.5947 15.6495C79.415 15.6495 79.2301 15.6231 79.0398 15.5702C78.8179 15.845 78.7017 16.1198 78.6911 16.3946C78.6911 16.5425 78.7281 16.6905 78.8021 16.8384C79.0874 17.3774 79.7691 17.6469 80.847 17.6469Z" fill="#619111"/>
<g clip-path="url(#clip0_2015_33)">
<path d="M0.00660605 8.1725V8.25157C-0.0149573 6.09524 0.826012 3.97484 2.40013 2.40072C3.95988 0.84097 6.04434 0 8.17911 0H12.8152C14.95 0 17.0273 0.84097 18.587 2.39353C20.1539 3.96765 20.9877 6.08086 20.9669 8.24438V8.16532V12.8014V12.7224C20.9884 14.8787 20.1475 16.9991 18.5734 18.5732C16.9992 20.1473 14.886 20.9811 12.7225 20.9667H12.8016H8.16545H8.24452C6.08818 20.9883 3.96779 20.1473 2.39367 18.5732C0.819543 16.9991 -0.0142404 14.8859 0.000135123 12.7224V12.8014L0.00732334 8.1725H0.00660605ZM0.25099 10.142C0.229427 10.0557 0.207862 9.97664 0.193486 9.89038C0.207862 9.97664 0.229427 10.0629 0.25099 10.142C0.272553 10.2282 0.286929 10.3073 0.294117 10.4007C0.272554 10.3145 0.265366 10.2282 0.25099 10.142ZM0.00660605 8.35939C0.00660605 8.4097 0.0066043 8.45283 0.0137921 8.49595C0.0137921 8.45283 0.0137938 8.4097 0.00660605 8.35939ZM0.0137921 8.61815C0.0137921 8.66846 0.0209803 8.71159 0.0209803 8.75471C0.0209803 8.71159 0.0137921 8.66127 0.0137921 8.61815ZM0.0281685 8.86972C0.0353563 8.91284 0.0353572 8.96316 0.0425449 8.9991C0.0425449 8.96316 0.0353563 8.92003 0.0281685 8.86972ZM0.135985 9.63881C0.143173 9.68194 0.15036 9.73225 0.164736 9.76819C0.157548 9.73225 0.143173 9.68194 0.135985 9.63881ZM15.5969 4.85175C15.1944 3.94609 14.6337 3.13387 13.9221 2.42228C13.0812 1.58131 12.0677 0.934411 10.9608 0.531896C10.6589 0.416891 10.3283 0.416891 10.0192 0.531896C8.91226 0.934411 7.8916 1.58131 7.05781 2.42228C6.34622 3.13387 5.78558 3.94609 5.38306 4.85175C5.32556 4.97394 5.44775 5.09613 5.56994 5.05301C7.03625 4.56424 8.63912 4.49236 10.1486 4.87331C10.3714 4.93082 10.6014 4.93082 10.8242 4.87331C12.3336 4.49955 13.9365 4.56424 15.4028 5.05301C15.5322 5.10332 15.6544 4.98113 15.5969 4.85175ZM20.693 10.4007C20.7002 10.3145 20.7146 10.2282 20.7362 10.142C20.7577 10.0557 20.7793 9.97664 20.7937 9.89038C20.7721 9.97664 20.7577 10.0557 20.7362 10.142C20.7074 10.2282 20.7002 10.3145 20.693 10.4007ZM20.959 8.50314C20.959 8.45283 20.9662 8.4097 20.9662 8.36657C20.959 8.4097 20.959 8.45283 20.959 8.50314ZM20.8583 9.50943C20.8655 9.4663 20.8727 9.42318 20.8799 9.38005C20.8727 9.43036 20.8655 9.47349 20.8583 9.50943ZM20.9302 9.00629C20.9374 8.96316 20.9374 8.91284 20.9446 8.87691C20.9374 8.92003 20.9302 8.96316 20.9302 9.00629ZM20.9518 8.75471C20.9518 8.7044 20.959 8.66127 20.959 8.61815C20.959 8.66127 20.9518 8.71159 20.9518 8.75471ZM20.7218 10.832C20.7433 10.9182 20.7649 10.9973 20.7793 11.0836C20.7649 10.9973 20.7433 10.911 20.7218 10.832C20.7002 10.7457 20.6858 10.6667 20.6787 10.5732C20.7002 10.6595 20.7074 10.7457 20.7218 10.832ZM20.9669 12.6145C20.9669 12.5642 20.9669 12.5211 20.9597 12.478C20.9597 12.5211 20.9597 12.5642 20.9669 12.6145ZM20.959 12.3558C20.959 12.3055 20.9518 12.2623 20.9518 12.2192C20.9518 12.2623 20.959 12.3127 20.959 12.3558ZM20.9446 12.1042C20.9374 12.0611 20.9374 12.0108 20.9302 11.9748C20.9302 12.0108 20.9374 12.0539 20.9446 12.1042ZM20.8799 11.5867C20.8727 11.5436 20.8655 11.5004 20.8583 11.4573C20.8655 11.5076 20.8727 11.5436 20.8799 11.5867ZM20.8368 11.3351C20.8296 11.292 20.8224 11.2417 20.808 11.2057C20.8152 11.2417 20.8296 11.292 20.8368 11.3351ZM16.1 10.142C16.0425 10.3648 16.0425 10.5948 16.1 10.8176C16.4738 12.327 16.4091 13.9299 15.9203 15.3962C15.8772 15.5256 16.0066 15.6406 16.1216 15.5831C17.0273 15.1806 17.8395 14.6199 18.5511 13.9083C19.392 13.0674 20.0389 12.0539 20.4415 10.947C20.5565 10.6451 20.5565 10.3145 20.4415 10.0054C20.0389 8.89847 19.392 7.8778 18.5511 7.04402C17.8395 6.33243 17.0273 5.77179 16.1216 5.36927C15.9994 5.31177 15.8772 5.43396 15.9203 5.55615C16.4091 7.04402 16.4666 8.63252 16.1 10.142ZM10.8314 20.7224C10.9176 20.7439 10.9967 20.7655 11.083 20.7799C10.9967 20.7655 10.9105 20.7439 10.8314 20.7224C10.7451 20.7008 10.6661 20.6864 10.5726 20.6792C10.6589 20.7008 10.7451 20.708 10.8314 20.7224ZM12.614 20.9667C12.5637 20.9667 12.5205 20.9667 12.4774 20.9596C12.5205 20.9596 12.5637 20.9596 12.614 20.9667ZM12.3552 20.9596C12.3049 20.9596 12.2618 20.9524 12.2186 20.9524C12.2618 20.9524 12.3121 20.9596 12.3552 20.9596ZM12.1036 20.9452C12.0605 20.938 12.0102 20.938 11.9743 20.9308C12.0102 20.9308 12.0533 20.938 12.1036 20.9452ZM11.3345 20.8374C11.2914 20.8302 11.2411 20.823 11.2052 20.8086C11.2411 20.8158 11.2914 20.8302 11.3345 20.8374ZM10.4001 20.6936C10.3139 20.7008 10.2276 20.7152 10.1414 20.7367C10.0551 20.7583 9.97605 20.7799 9.8898 20.7942C9.97605 20.7727 10.0551 20.7583 10.1414 20.7367C10.2276 20.708 10.3139 20.7008 10.4001 20.6936ZM8.50256 20.9596C8.45224 20.9596 8.40912 20.9667 8.36599 20.9667C8.40912 20.9596 8.45224 20.9596 8.50256 20.9596ZM9.50884 20.8589C9.46572 20.8661 9.42259 20.8733 9.37946 20.8805C9.42978 20.8733 9.47291 20.8661 9.50884 20.8589ZM9.0057 20.9308C8.96257 20.938 8.91226 20.938 8.87632 20.9452C8.91945 20.938 8.96257 20.9308 9.0057 20.9308ZM8.75413 20.9524C8.70381 20.9524 8.66069 20.9596 8.61756 20.9596C8.66069 20.9596 8.711 20.9524 8.75413 20.9524ZM5.37587 16.1222C5.77839 17.0278 6.33904 17.8401 7.05063 18.5517C7.8916 19.3926 8.90507 20.0395 10.012 20.442C10.3139 20.557 10.6445 20.557 10.9536 20.442C12.0605 20.0395 13.0812 19.3926 13.915 18.5517C14.6265 17.8401 15.1872 17.0207 15.5897 16.1222C15.6472 16 15.525 15.8778 15.4028 15.9209C13.9365 16.4169 12.3336 16.4816 10.8242 16.1006C10.6014 16.0431 10.3714 16.0431 10.1486 16.1006C8.63912 16.4816 7.03625 16.4097 5.56994 15.9209C5.44056 15.8706 5.31837 15.9928 5.37587 16.1222ZM5.16024 10.9542C5.56276 12.0611 6.20966 13.0818 7.05063 13.9155C7.8916 14.7565 8.90507 15.4034 10.012 15.8059C10.3139 15.9209 10.6445 15.9209 10.9536 15.8059C12.0605 15.4034 13.0812 14.7565 13.915 13.9155C14.7559 13.0818 15.41 12.0683 15.8053 10.9542C15.9203 10.6523 15.9203 10.3216 15.8053 10.0126C15.4028 8.90566 14.7559 7.88499 13.915 7.05121C13.074 6.21743 12.0605 5.56334 10.9536 5.16082C10.6517 5.04582 10.3211 5.04582 10.012 5.16082C8.90507 5.56334 7.88441 6.21024 7.05063 7.05121C6.20966 7.89218 5.56276 8.90566 5.16024 10.0126C5.05961 10.3216 5.05961 10.6523 5.16024 10.9542ZM0.531313 10.9542C0.933828 12.0611 1.58073 13.0818 2.4217 13.9155C3.13329 14.6271 3.94551 15.1878 4.85117 15.5903C4.97336 15.6478 5.09555 15.5256 5.05242 15.4034C4.56365 13.9371 4.49178 12.3342 4.87273 10.8248C4.93023 10.602 4.93023 10.372 4.87273 10.1491C4.49896 8.63971 4.56365 7.03683 5.05242 5.57053C5.09555 5.44115 4.96617 5.32614 4.85117 5.38365C3.94551 5.78616 3.13329 6.34681 2.4217 7.0584C1.58073 7.89937 0.933828 8.91284 0.531313 10.0198C0.423496 10.3216 0.423496 10.6523 0.531313 10.9542ZM0.279741 10.5732C0.272553 10.6595 0.258177 10.7457 0.236614 10.832C0.21505 10.9182 0.193488 10.9973 0.179112 11.0836C0.200676 10.9973 0.21505 10.9182 0.236614 10.832C0.265365 10.7457 0.272553 10.6595 0.279741 10.5732ZM0.0137921 12.4708C0.0137921 12.5211 0.00660605 12.5642 0.00660605 12.6074C0.0137938 12.5642 0.0137921 12.5211 0.0137921 12.4708ZM0.114423 11.4645C0.107235 11.5076 0.100046 11.5508 0.0928581 11.5939C0.100046 11.5436 0.107235 11.5076 0.114423 11.4645ZM0.0425449 11.9676C0.0353572 12.0108 0.0353563 12.0611 0.0281685 12.097C0.0353563 12.0539 0.0425449 12.0108 0.0425449 11.9676ZM0.0209803 12.2192C0.0209803 12.2695 0.0137921 12.3127 0.0137921 12.3558C0.0137921 12.3127 0.0209803 12.2623 0.0209803 12.2192Z" fill="#619111"/>
</g>
<defs>
<clipPath id="clip0_2015_33">
<rect width="20.9675" height="20.9675" fill="white" transform="matrix(-1 0 0 1 20.9673 0)"/>
</clipPath>
</defs>
</svg>
