<svg width="96" height="18" viewBox="0 0 96 18" fill="none" xmlns="http://www.w3.org/2000/svg">
<path d="M16.2324 4.73438L10.5293 15.5566H0L2.85156 10.1455H10.1455V4.73438H16.2324ZM10.1455 0V4.73438H5.70312L2.85156 10.1455H0V0H10.1455Z" fill="#619111"/>
<path d="M26.4214 15V3.47466H30.5608C31.946 3.47466 32.9903 3.72356 33.6937 4.22137C34.3972 4.71918 34.7489 5.50918 34.7489 6.59137C34.7489 7.07836 34.6461 7.50582 34.4405 7.87377C34.2348 8.24171 33.9318 8.5339 33.5314 8.75034C33.1418 8.95596 32.6765 9.06418 32.1354 9.075L32.1192 9.01007C33.104 9.03171 33.8669 9.30226 34.408 9.82171C34.9599 10.3303 35.2359 11.0013 35.2359 11.8346C35.2359 12.8843 34.8842 13.6743 34.1807 14.2046C33.4773 14.7349 32.4763 15 31.1777 15H26.4214ZM28.1746 13.4254H31.129C31.854 13.4254 32.4168 13.2793 32.8172 12.9871C33.2284 12.6841 33.434 12.2458 33.434 11.6723C33.434 11.1095 33.2284 10.6712 32.8172 10.3574C32.4168 10.0436 31.854 9.88664 31.129 9.88664H28.1746V13.4254ZM28.1746 8.39322H30.5283C31.2967 8.39322 31.8919 8.24712 32.314 7.95493C32.736 7.66274 32.947 7.25151 32.947 6.72123C32.947 6.15849 32.7414 5.74185 32.3302 5.4713C31.9298 5.18993 31.3292 5.04925 30.5283 5.04925H28.1746V8.39322ZM39.0954 15.1948C38.2296 15.1948 37.537 14.908 37.0176 14.3345C36.5089 13.7501 36.2546 12.9438 36.2546 11.9158V6.36411H37.9753V11.4775C37.9753 12.2566 38.1106 12.8302 38.3811 13.1982C38.6517 13.5661 39.0629 13.7501 39.6148 13.7501C40.2425 13.7501 40.7295 13.5499 41.0758 13.1495C41.4329 12.7382 41.6115 12.1647 41.6115 11.4288V6.36411H43.3321V15H41.7251L41.6926 12.7436L41.9361 12.841C41.7846 13.5986 41.4654 14.1829 40.9784 14.5942C40.4914 14.9946 39.8637 15.1948 39.0954 15.1948ZM44.586 15V6.36411H46.3067V15H44.586ZM44.5535 5.11418V3.39349H46.3392V5.11418H44.5535ZM49.5216 15C48.9588 15 48.5043 14.8539 48.158 14.5617C47.8117 14.2695 47.6385 13.8042 47.6385 13.1657V3.47466H49.3592V13.0034C49.3592 13.1982 49.4079 13.3442 49.5053 13.4416C49.6135 13.539 49.7651 13.5877 49.9598 13.5877H50.6416V15H49.5216ZM54.203 15.1948C53.4671 15.1948 52.8232 15.0108 52.2713 14.6429C51.7302 14.2749 51.3135 13.7555 51.0213 13.0845C50.74 12.4027 50.5993 11.6019 50.5993 10.6821C50.5993 9.76219 50.7454 8.96678 51.0376 8.29582C51.3298 7.61404 51.7464 7.08918 52.2875 6.72123C52.8286 6.35329 53.4671 6.16932 54.203 6.16932C54.7982 6.16932 55.3285 6.29377 55.7938 6.54267C56.2591 6.79158 56.6108 7.13788 56.8489 7.58158V3.47466H58.5696V15H56.9626L56.9139 13.7014C56.6758 14.1667 56.3132 14.5347 55.8263 14.8052C55.3501 15.0649 54.809 15.1948 54.203 15.1948ZM54.6575 13.7014C55.1228 13.7014 55.5178 13.5823 55.8425 13.3442C56.1671 13.1062 56.4161 12.7599 56.5892 12.3053C56.7624 11.8508 56.8489 11.3097 56.8489 10.6821C56.8489 10.0327 56.7624 9.48623 56.5892 9.04253C56.4161 8.58801 56.1671 8.24712 55.8425 8.01986C55.5178 7.78178 55.1228 7.66274 54.6575 7.66274C53.9649 7.66274 53.413 7.93329 53.0017 8.47438C52.5905 9.00466 52.3849 9.74055 52.3849 10.6821C52.3849 11.6127 52.5905 12.3486 53.0017 12.8897C53.413 13.4308 53.9649 13.7014 54.6575 13.7014ZM59.9303 15V3.47466H64.5242C65.3466 3.47466 66.0555 3.61534 66.6507 3.89671C67.2459 4.17808 67.7058 4.57849 68.0305 5.09795C68.3551 5.6174 68.5174 6.23425 68.5174 6.94849C68.5174 7.46795 68.3984 7.93329 68.1603 8.34452C67.9331 8.75575 67.6246 9.08582 67.2351 9.33473C66.8563 9.57281 66.4505 9.70808 66.0176 9.74055L65.9364 9.59445C66.6615 9.59445 67.2242 9.76219 67.6246 10.0977C68.0251 10.4223 68.2577 10.9364 68.3227 11.6398L68.6311 15H66.8617L66.5857 11.8671C66.5533 11.4017 66.3964 11.0608 66.115 10.8444C65.8336 10.6171 65.3737 10.5035 64.7352 10.5035H61.6834V15H59.9303ZM61.6834 8.89644H64.5566C65.2168 8.89644 65.7362 8.73411 66.115 8.40945C66.5046 8.07397 66.6994 7.60322 66.6994 6.99719C66.6994 6.38034 66.5046 5.90959 66.115 5.58493C65.7254 5.24945 65.1572 5.08171 64.4105 5.08171H61.6834V8.89644ZM69.811 15V6.36411H71.5317V15H69.811ZM69.7785 5.11418V3.39349H71.5642V5.11418H69.7785ZM76.3057 17.6297C75.6239 17.6297 75.0233 17.5269 74.5038 17.3213C73.9844 17.1157 73.5569 16.8235 73.2214 16.4447C72.886 16.0768 72.6587 15.6439 72.5397 15.1461L74.3253 15.0325C74.4443 15.3896 74.6499 15.671 74.9421 15.8766C75.2451 16.093 75.6997 16.2012 76.3057 16.2012C77.0199 16.2012 77.5664 16.0497 77.9452 15.7467C78.3348 15.4437 78.5296 14.9838 78.5296 14.3669V13.117C78.324 13.5607 77.9939 13.9124 77.5394 14.1721C77.0849 14.4318 76.5762 14.5617 76.0135 14.5617C75.2884 14.5617 74.6445 14.3832 74.0818 14.026C73.519 13.6689 73.0807 13.1765 72.7669 12.5488C72.4531 11.9212 72.2962 11.1961 72.2962 10.3736C72.2962 9.54034 72.4477 8.80986 72.7507 8.18219C73.0645 7.55452 73.4974 7.06212 74.0493 6.705C74.6121 6.34788 75.2451 6.16932 75.9486 6.16932C76.5654 6.16932 77.1065 6.31 77.5718 6.59137C78.048 6.87274 78.3889 7.25151 78.5945 7.72767V6.36411H80.2503V14.3182C80.2503 15.0325 80.0879 15.6331 79.7633 16.1201C79.4494 16.6179 78.9949 16.9912 78.3997 17.2401C77.8153 17.4999 77.1173 17.6297 76.3057 17.6297ZM76.2894 13.1008C76.9604 13.1008 77.4961 12.8573 77.8965 12.3703C78.3077 11.8833 78.5188 11.2123 78.5296 10.3574C78.5404 9.79466 78.4538 9.31308 78.2699 8.91267C78.0859 8.50144 77.8207 8.1876 77.4744 7.97116C77.139 7.7439 76.744 7.63027 76.2894 7.63027C75.586 7.63027 75.0395 7.87918 74.6499 8.37699C74.2712 8.86397 74.0818 9.52411 74.0818 10.3574C74.0818 11.2015 74.2766 11.8725 74.6662 12.3703C75.0666 12.8573 75.6077 13.1008 76.2894 13.1008ZM81.512 15V3.47466H83.2327V8.31205L83.0217 8.27959C83.119 7.7926 83.2976 7.3976 83.5573 7.09459C83.8171 6.78075 84.1363 6.54808 84.5151 6.39658C84.8938 6.24507 85.3105 6.16932 85.765 6.16932C86.3927 6.16932 86.923 6.31 87.3558 6.59137C87.7887 6.86192 88.1134 7.2461 88.3298 7.7439C88.5571 8.24171 88.6707 8.80986 88.6707 9.44836V15H86.95V9.90288C86.95 9.1237 86.8147 8.55014 86.5442 8.18219C86.2845 7.80342 85.8732 7.61404 85.3105 7.61404C84.6828 7.61404 84.1796 7.81425 83.8008 8.21466C83.4221 8.60425 83.2327 9.17781 83.2327 9.93534V15H81.512ZM92.822 15C91.9995 15 91.3935 14.8106 91.0039 14.4318C90.6143 14.0531 90.4195 13.4633 90.4195 12.6625V4.335H92.1402V12.5326C92.1402 12.933 92.2268 13.209 92.3999 13.3605C92.5731 13.512 92.8382 13.5877 93.1954 13.5877H94.429V15H92.822ZM89.1047 7.77637V6.36411H94.429V7.77637H89.1047Z" fill="#619111"/>
</svg>
