<svg width="36" height="36" viewBox="0 0 36 36" fill="none" xmlns="http://www.w3.org/2000/svg">
<g clip-path="url(#clip0_2_98)">
<path d="M17.7886 35.5785C7.80139 35.5423 -0.179823 27.4005 0.00308198 17.4465C0.180929 7.75125 8.15118 -0.12329 18.0027 0.00146211C27.8669 0.126214 35.7596 8.2157 35.5759 18.1284C35.3972 27.7705 27.5416 35.5633 17.7895 35.5793L17.7886 35.5785ZM17.7718 10.0988C16.4232 10.0988 15.0746 10.1072 13.726 10.092C13.436 10.0887 13.2793 10.1805 13.1343 10.4359C11.7949 12.7885 10.4447 15.1352 9.08425 17.476C8.95866 17.6926 8.9772 17.8418 9.09268 18.0441C10.4573 20.4144 11.8185 22.7872 13.1688 25.1668C13.3079 25.4112 13.4672 25.4795 13.7369 25.4787C16.4341 25.4685 19.1314 25.4677 21.8277 25.4795C22.1067 25.4803 22.25 25.3876 22.3857 25.1516C23.7453 22.794 25.1124 20.4405 26.4914 18.0947C26.6347 17.8511 26.6212 17.6833 26.4855 17.4499C25.1217 15.1108 23.7663 12.7675 22.4203 10.4182C22.2846 10.1814 22.1362 10.0887 21.8597 10.092C20.4977 10.1072 19.1347 10.0988 17.7718 10.0988ZM27.3916 19.0329C24.4162 24.1468 21.4805 29.1934 18.5329 34.261C18.6239 34.2812 18.6619 34.2998 18.699 34.2973C18.9645 34.2779 19.2308 34.2602 19.4955 34.2298C24.3285 33.6786 28.1687 31.4103 31.1306 27.5708C31.6481 26.8998 31.7307 26.4135 31.2528 25.6464C29.9185 23.5071 28.7014 21.2953 27.3932 19.0329H27.3916ZM11.9062 25.4753C8.95866 20.3284 6.06085 15.2684 3.13775 10.1654C3.06779 10.2859 3.0366 10.3314 3.013 10.3803C0.641984 15.3122 0.644512 20.2441 2.99951 25.1819C3.11752 25.4289 3.27429 25.4812 3.52463 25.4803C6.09372 25.4728 8.66281 25.4753 11.2319 25.4753C11.4266 25.4753 11.6213 25.4753 11.9062 25.4753ZM14.0817 8.80321H31.7206C31.1719 8.1078 30.7167 7.46634 30.1967 6.88304C27.3722 3.71789 23.8506 1.89466 19.6379 1.3299C18.6838 1.20178 18.2362 1.47235 17.7962 2.29251C16.6246 4.4782 15.3451 6.60572 14.0825 8.80321H14.0817ZM32.4868 25.3328C32.5921 25.1263 32.6595 25.0049 32.7177 24.8785C34.9168 20.0671 34.8822 15.2726 32.6275 10.4865C32.4868 10.1873 32.3249 10.087 31.9945 10.0887C29.3824 10.103 26.7704 10.0962 24.1583 10.0979C24.0243 10.0979 23.8911 10.1097 23.6905 10.119C26.6313 15.2052 29.5409 20.2365 32.4876 25.3328H32.4868ZM21.4333 26.7658H3.91656C4.83277 28.1625 5.88131 29.3603 7.1136 30.3962C9.87318 32.7168 13.0525 34.0065 16.6449 34.2973C16.9559 34.3225 17.1143 34.2222 17.2686 33.9525C18.1283 32.442 19.0117 30.945 19.8857 29.4421C20.3974 28.562 20.9056 27.6795 21.4341 26.7666L21.4333 26.7658ZM16.9744 1.25488C16.601 1.29028 16.3237 1.31136 16.0464 1.34423C10.9563 1.95029 6.98464 4.40487 4.05142 8.58658C3.88706 8.82091 3.90476 8.98528 4.04215 9.2213C5.01315 10.8936 5.96729 12.5761 6.92817 14.2552C7.34371 14.981 7.76177 15.7059 8.21187 16.4881C11.1367 11.4028 14.0277 6.37729 16.9744 1.25488Z" fill="white"/>
</g>
<defs>
<clipPath id="clip0_2_98">
<rect width="35.5787" height="35.5787" fill="white"/>
</clipPath>
</defs>
</svg>
